<?xml version="1.0" encoding="UTF-8"?><svg id="Layer_1" xmlns="http://www.w3.org/2000/svg" viewBox="0 0 322.39 101.57"><defs><style>.cls-1{fill:#607947;}.cls-2{fill:#82739e;}.cls-3{fill:#f1f7eb;}</style></defs><path class="cls-2" d="M7.25,18.49c3.56,2.2,7.12,4.39,10.68,6.59.94-1.39,2.21-3.02,3.91-4.66.95-.92,3.02-2.9,6.07-4.52,4.52-2.4,8.68-2.64,11.29-2.78,1.72-.09,4.69-.22,8.4.73,3,.77,5.08,1.88,6.61,2.71,4.83,2.62,7.84,5.75,9.41,7.41,1.39,1.47,2.99,3.38,4.56,5.76.84-1.13,2.11-2.78,3.76-4.71,3.03-3.53,4.87-5.67,7.62-7.55.8-.55,4.02-2.64,8.78-3.69,2.02-.45,5.82-1.25,10.45-.16.54.13,2.5.61,4.85,1.79,3.74,1.88,6.01,4.29,6.8,5.18,2.86,3.22,4.04,6.42,4.4,7.51,1.32,3.92,1.15,7.21,1.04,8.49-.36,4.08-1.85,7.1-2.8,8.71h14.52c.08-.26.2-.63.33-1.09,1.86-6.52,1.31-11.98,1.15-13.34-.16-1.38-.83-6.34-3.76-11.86-5.86-11.03-16.05-15.5-17.69-16.19-2.01-.85-14.94-6.05-28.47.28-5.83,2.73-9.6,6.58-11.62,8.99-.2-.24-.51-.58-.89-.99-4.94-5.21-10.62-7.27-13.65-8.33-3.09-1.08-10.44-3.55-19.91-1.93-3.07.53-12.37,2.51-20.24,10.4-2.7,2.7-4.48,5.36-5.59,7.25Z"/><path class="cls-1" d="M65.22,101.12h2.52c.14-.17.34-.41.59-.71,3.62-4.33,5.43-6.5,6.87-8,1.78-1.85,4.89-5.04,9.79-7.53,1.82-.92,2.75-1.18,4.19-1.76,4.26-1.74,7.58-4.2,15.08-11.29,7.34-6.94,7.4-7.66,11.81-11.65,5.17-4.68,9.84-7.99,12.99-10.07-1.14-.31-2.67-.68-4.49-.99-4.68-.79-8.32-.7-9.36-.66-2.02.08-6.05.26-10.96,1.86-4.9,1.6-8.67,3.96-11.32,6,.02-.4.04-.81.05-1.22.06-2.64-.15-5.1-.52-7.34-.66.85-1.63,2.08-2.89,3.51-.47.53-.77.85-1.62,1.79-1.95,2.14-2.92,3.2-3.18,3.51-1.73,2.07-2.54,4.1-3.34,6.12-1.41,3.53-.64,3.54-1.93,6.16-1,2.03-1.73,2.58-3.15,5.48-.73,1.5-1.16,2.61-1.36,3.13-.89,2.26-2.65,5.88-6.42,11.86-.09-.6-.24-1.47-.45-2.49-.74-3.6-1.68-6.23-2.28-7.88-2.57-7.06-3.85-10.59-3.98-10.87-2.39-5.2-5.07-8.58-8.35-12.78-3.49-4.46-4.86-5.47-9.46-10.79-4.07-4.7-7.17-8.73-9.18-11.44v7.91c-.22-.4-.47-.8-.78-1.2-2.23-2.92-5.71-3.69-6.78-3.95,0,0-6.24-1.53-13.98-6.14-3.43-2.05-7.61-6.29-10.02-16.16-.6,1.49-1.35,3.55-1.98,6.07-.49,1.97-1.97,8.46-.99,17.01.48,4.16,1.34,11.04,5.79,18.21,2.32,3.74,4.85,6.32,6.49,7.98.95.95,3.5,3.46,9.74,7.76,3.73,2.58,9.55,6.33,17.72,10.52,6.77,3.47,6.89,3.01,10.87,5.44,7.16,4.37,10.51,8.15,12.64,11.58.77,1.24,1.31,2.31,1.65,3.05Z"/><path class="cls-3" d="M129.64,100.94c-.06-.06-.09-.15-.09-.27,0-.32.17-.74.51-1.26.34-.52.67-.94.99-1.26.68-.6,1.19-1.11,1.53-1.53s.65-1.03.93-1.83c.28-.8.56-1.98.84-3.54l4.8-27.9h-4.08c-2.92,0-4.94.33-6.06.99-1.12.66-1.68,1.83-1.68,3.51,0,1.16.19,2.11.57,2.85.38.74.57,1.19.57,1.35,0,.32-.2.82-.6,1.5-.4.68-.86,1.29-1.38,1.83-.52.54-.94.81-1.26.81-.12,0-.24-.08-.36-.24-.28-.48-.51-1.12-.69-1.92-.18-.8-.27-1.64-.27-2.52,0-2.4.6-4.52,1.8-6.36,1.2-1.84,2.9-3.27,5.1-4.29,2.2-1.02,4.76-1.53,7.68-1.53h10.32c2.08,0,3.68-.15,4.8-.45,1.12-.3,1.89-.77,2.31-1.41.42-.64.63-1.5.63-2.58,0-1.2-.18-2.16-.54-2.88-.36-.72-.54-1.14-.54-1.26,0-.28.2-.76.6-1.44.4-.68.85-1.3,1.35-1.86.5-.56.91-.84,1.23-.84.2,0,.32.06.36.18.72,1.16,1.08,2.72,1.08,4.68,0,2.36-.6,4.44-1.8,6.24-1.2,1.8-2.91,3.19-5.13,4.17-2.22.98-4.81,1.47-7.77,1.47h-1.86l-5.28,30.9c-.08.64-.22,1.15-.42,1.53-.2.38-.48.79-.84,1.23v.12c.72.28,1.52.42,2.4.42.52,0,1.03-.1,1.53-.3.5-.2.83-.3.99-.3.24,0,.36.1.36.3,0,.32-.16.66-.48,1.02-.88,1-1.63,1.71-2.25,2.13-.62.42-1.19.63-1.71.63-.44,0-1.18-.16-2.22-.48-1.12-.32-1.9-.48-2.34-.48-.56,0-1.32.2-2.28.6-.64.24-1.02.36-1.14.36-.08,0-.15-.03-.21-.09Z"/><path class="cls-3" d="M155.17,98.81c0-.92.12-1.98.36-3.18l2.88-16.02c.16-1.04.24-1.68.24-1.92,0-.6-.18-.9-.54-.9-.48,0-1.06.38-1.74,1.14-.68.76-1.42,1.96-2.22,3.6-.16.48-.36.72-.6.72s-.36-.2-.36-.6c0-.96.43-2.19,1.29-3.69s1.92-2.8,3.18-3.9c1.26-1.1,2.43-1.65,3.51-1.65,1.24,0,1.86.88,1.86,2.64,0,.84-.12,1.94-.36,3.3l-3.12,17.34-.12.78c0,.44.18.66.54.66.48,0,1.06-.39,1.74-1.17.68-.78,1.42-1.97,2.22-3.57.2-.44.4-.66.6-.66.24,0,.36.26.36.78,0,.92-.43,2.11-1.29,3.57-.86,1.46-1.91,2.74-3.15,3.84-1.24,1.1-2.36,1.65-3.36,1.65-1.28,0-1.92-.92-1.92-2.76ZM160.09,68.39l.72-4.2c.2-1.16.63-2.05,1.29-2.67.66-.62,1.49-.93,2.49-.93h.24c.24,0,.39.04.45.12.06.08.07.24.03.48l-.66,4.14c-.16,1.12-.58,2.01-1.26,2.67-.68.66-1.52.99-2.52.99h-.24c-.4,0-.58-.2-.54-.6Z"/><path class="cls-3" d="M169.16,95.69c0-3.64.8-7.27,2.4-10.89,1.6-3.62,3.76-6.59,6.48-8.91,2.72-2.32,5.64-3.48,8.76-3.48h.6c1.32-5.52,2.56-9.68,3.72-12.48,1.16-2.8,2.7-5.12,4.62-6.96,1.28-1.2,2.44-2.02,3.48-2.46,1.04-.44,2.46-.84,4.26-1.2.8-.16,1.37-.31,1.71-.45.34-.14.57-.21.69-.21.28,0,.42.16.42.48,0,.52-.38,1.1-1.14,1.74-.4.36-.77.6-1.11.72s-.67.2-.99.24c-.32.04-.56.08-.72.12-2.08.28-3.84,1.32-5.28,3.12-1.08,1.4-2.03,3.4-2.85,6-.82,2.6-1.93,7.14-3.33,13.62-2.32,11.2-3.62,17.9-3.9,20.1-.04.28-.06.62-.06,1.02,0,.88.26,1.32.78,1.32.64,0,1.25-.43,1.83-1.29.58-.86,1.19-2.01,1.83-3.45.24-.44.46-.66.66-.66.24,0,.36.22.36.66l-.12,1.02c-.32,1.4-.91,2.73-1.77,3.99-.86,1.26-1.82,2.27-2.88,3.03-1.06.76-2.03,1.14-2.91,1.14-1.28,0-1.92-1.06-1.92-3.18,0-.8.08-1.76.24-2.88l1.02-5.28h-.06c-1.48,2.56-3.36,5.09-5.64,7.59-2.28,2.5-4.32,3.75-6.12,3.75-2.04,0-3.06-1.96-3.06-5.88ZM178.91,94.04c1.46-1.74,2.82-3.87,4.08-6.39s2.13-4.78,2.61-6.78l.96-3.84c-1.2-.8-2.46-1.2-3.78-1.2-1.72,0-3.29.99-4.71,2.97-1.42,1.98-2.53,4.38-3.33,7.2-.8,2.82-1.2,5.37-1.2,7.65,0,1,.11,1.75.33,2.25.22.5.61.75,1.17.75,1.12,0,2.41-.87,3.87-2.61Z"/><path class="cls-3" d="M196.94,100.55c-.88-.68-1.46-1.58-1.74-2.7-.08-.32.05-.83.39-1.53.34-.7.79-1.39,1.35-2.07.32-.36.58-.54.78-.54s.36.16.48.48c1.2,2.8,2.86,4.2,4.98,4.2,1.08,0,1.93-.33,2.55-.99.62-.66.93-1.55.93-2.67,0-1.52-.86-3.48-2.58-5.88l-1.26-1.8c-.96-1.36-1.63-2.48-2.01-3.36-.38-.88-.57-1.82-.57-2.82,0-1.6.43-3.04,1.29-4.32.86-1.28,1.99-2.29,3.39-3.03,1.4-.74,2.86-1.11,4.38-1.11,2.88,0,4.32.98,4.32,2.94,0,.72-.26,1.44-.78,2.16-.28.48-.52.72-.72.72-.24,0-.46-.24-.66-.72-.44-.76-.97-1.31-1.59-1.65-.62-.34-1.41-.51-2.37-.51-1.12,0-2.02.3-2.7.9-.68.6-1.02,1.36-1.02,2.28,0,.52.17,1.11.51,1.77s.99,1.67,1.95,3.03l1.26,1.74c1.12,1.48,1.9,2.75,2.34,3.81.44,1.06.66,2.17.66,3.33,0,1.48-.48,2.95-1.44,4.41-.96,1.46-2.24,2.65-3.84,3.57-1.6.92-3.3,1.38-5.1,1.38-1.24,0-2.3-.34-3.18-1.02Z"/><path class="cls-3" d="M217.55,100.46c-.34-.74-.51-1.67-.51-2.79,0-.76.08-1.66.24-2.7l3.54-23.64c.84-5.44,1.86-9.64,3.06-12.6,1.2-2.96,2.64-5.1,4.32-6.42.96-.76,1.96-1.32,3-1.68,1.04-.36,2.64-.8,4.8-1.32,1-.2,1.64-.36,1.92-.48.28-.12.46-.18.54-.18.28,0,.42.16.42.48,0,.16-.09.4-.27.72-.18.32-.47.66-.87,1.02-.44.4-.86.67-1.26.81-.4.14-.88.23-1.44.27-2.32.24-4,.96-5.04,2.16-1.96,2.24-3.4,6.38-4.32,12.42l-4.38,28.26c-.04.28-.06.62-.06,1.02,0,.88.26,1.32.78,1.32,1.2,0,2.6-1.78,4.2-5.34.16-.44.38-.66.66-.66s.42.28.42.84c0,1.32-.47,2.74-1.41,4.26-.94,1.52-2.05,2.79-3.33,3.81-1.28,1.02-2.4,1.53-3.36,1.53-.76,0-1.31-.37-1.65-1.11Z"/><path class="cls-3" d="M232.97,99.5c-1.06-1.38-1.59-3.29-1.59-5.73,0-2.96.71-6.13,2.13-9.51,1.42-3.38,3.25-6.2,5.49-8.46,2.24-2.26,4.5-3.39,6.78-3.39,2.08,0,3.12,1.26,3.12,3.78,0,2.04-.6,4.04-1.8,6-1.2,1.96-2.81,3.69-4.83,5.19-2.02,1.5-4.23,2.65-6.63,3.45,0,2.16.35,3.72,1.05,4.68.7.96,1.73,1.44,3.09,1.44,1.44,0,2.76-.46,3.96-1.38,1.2-.92,2.22-2.18,3.06-3.78.12-.24.24-.44.36-.6.12-.16.28-.24.48-.24.32,0,.48.24.48.72,0,1.08-.54,2.42-1.62,4.02-1.08,1.6-2.46,2.98-4.14,4.14-1.68,1.16-3.38,1.74-5.1,1.74s-3.23-.69-4.29-2.07ZM240.89,86.54c1.18-.74,2.17-1.75,2.97-3.03.8-1.28,1.2-2.72,1.2-4.32,0-1.88-.66-2.82-1.98-2.82-1.08,0-2.11.58-3.09,1.74-.98,1.16-1.8,2.6-2.46,4.32-.66,1.72-1.11,3.38-1.35,4.98.24.16.7.24,1.38.24,1.04,0,2.15-.37,3.33-1.11Z"/><path class="cls-3" d="M253.73,101.48c-.1-.06-.15-.13-.15-.21,0-.12.12-.38.36-.78.24-.4.42-.96.54-1.68.16-.84.3-1.61.42-2.31.12-.7.24-1.35.36-1.95,1-5.48,1.67-9.31,2.01-11.49.34-2.18.49-3.77.45-4.77,0-.52-.04-.9-.12-1.14-.08-.24-.26-.36-.54-.36-.36,0-.82.3-1.38.9-.56.6-1.08,1.3-1.56,2.1-.2.36-.38.67-.54.93-.16.26-.29.45-.39.57-.1.12-.21.18-.33.18-.16,0-.28-.06-.36-.18-.08-.12-.12-.28-.12-.48,0-.76.43-1.82,1.29-3.18.86-1.36,1.88-2.57,3.06-3.63,1.18-1.06,2.23-1.59,3.15-1.59.76,0,1.29.3,1.59.9.3.6.45,1.54.45,2.82,0,1.76-.38,4.14-1.14,7.14h.12c3.8-7.24,7.32-10.86,10.56-10.86.84,0,1.49.23,1.95.69.46.46.69,1.11.69,1.95s-.19,1.78-.57,2.7c-.38.92-.84,1.68-1.38,2.28s-1.03.9-1.47.9c-.28,0-.38-.18-.3-.54.12-.56.18-1,.18-1.32,0-.96-.52-1.44-1.56-1.44-1.24,0-2.48.72-3.72,2.16-1.24,1.44-2.33,3.2-3.27,5.28-.94,2.08-1.59,3.98-1.95,5.7-.48,1.84-.78,3.76-.9,5.76-.08.76-.43,1.53-1.05,2.31-.62.78-1.33,1.43-2.13,1.95-.8.52-1.42.78-1.86.78-.16,0-.29-.03-.39-.09Z"/><path class="cls-3" d="M276.62,101.21c0-.16.09-.51.27-1.05.18-.54.43-1.47.75-2.79.8-3.32,1.76-8.86,2.88-16.62.24-1.52.36-2.58.36-3.18,0-.52-.12-.78-.36-.78-.68,0-1.7,1.2-3.06,3.6-.2.36-.38.67-.54.93-.16.26-.29.45-.39.57-.1.12-.21.18-.33.18-.32,0-.48-.2-.48-.6,0-.8.44-1.94,1.32-3.42.88-1.48,1.92-2.79,3.12-3.93s2.28-1.71,3.24-1.71c.64,0,1.1.28,1.38.84.28.56.42,1.26.42,2.1,0,1.32-.32,3.9-.96,7.74h.06c1.84-3.24,3.86-5.83,6.06-7.77,2.2-1.94,4.1-2.91,5.7-2.91,1.68,0,2.52,1.18,2.52,3.54,0,.88-.18,2.36-.54,4.44l-1.38,7.2c-1,5.08-1.5,7.96-1.5,8.64,0,.28.07.53.21.75.14.22.37.33.69.33,1.08,0,2.32-1.64,3.72-4.92.12-.44.32-.66.6-.66.24,0,.36.24.36.72,0,.36-.02.68-.06.96-.28,1.44-.86,2.79-1.74,4.05-.88,1.26-1.86,2.26-2.94,3-1.08.74-2.06,1.11-2.94,1.11s-1.41-.35-1.71-1.05c-.3-.7-.45-1.47-.45-2.31,0-1.8.5-5.04,1.5-9.72.96-4.56,1.48-7.72,1.56-9.48.04-.72,0-1.23-.15-1.53-.14-.3-.47-.45-.99-.45-1.24,0-2.57.82-3.99,2.46-1.42,1.64-2.69,3.65-3.81,6.03-1.12,2.38-1.86,4.55-2.22,6.51l-.96,5.22c-.24,1.04-.88,2.02-1.92,2.94-1.04.92-1.96,1.38-2.76,1.38-.36,0-.54-.12-.54-.36Z"/><path class="cls-3" d="M306.47,99.5c-1.06-1.38-1.59-3.29-1.59-5.73,0-2.96.71-6.13,2.13-9.51,1.42-3.38,3.25-6.2,5.49-8.46,2.24-2.26,4.5-3.39,6.78-3.39,2.08,0,3.12,1.26,3.12,3.78,0,2.04-.6,4.04-1.8,6-1.2,1.96-2.81,3.69-4.83,5.19-2.02,1.5-4.23,2.65-6.63,3.45,0,2.16.35,3.72,1.05,4.68.7.96,1.73,1.44,3.09,1.44,1.44,0,2.76-.46,3.96-1.38,1.2-.92,2.22-2.18,3.06-3.78.12-.24.24-.44.36-.6.12-.16.28-.24.48-.24.32,0,.48.24.48.72,0,1.08-.54,2.42-1.62,4.02-1.08,1.6-2.46,2.98-4.14,4.14-1.68,1.16-3.38,1.74-5.1,1.74s-3.23-.69-4.29-2.07ZM314.39,86.54c1.18-.74,2.17-1.75,2.97-3.03.8-1.28,1.2-2.72,1.2-4.32,0-1.88-.66-2.82-1.98-2.82-1.08,0-2.11.58-3.09,1.74-.98,1.16-1.8,2.6-2.46,4.32-.66,1.72-1.11,3.38-1.35,4.98.24.16.7.24,1.38.24,1.04,0,2.15-.37,3.33-1.11Z"/></svg>