<?xml version="1.0" encoding="UTF-8"?><svg id="Layer_1" xmlns="http://www.w3.org/2000/svg" viewBox="0 0 401.3 142.49"><defs><style>.cls-1{fill:#607947;}.cls-2{fill:#82739e;}.cls-3{fill:#e3f1db;font-family:Charm-Regular, Charm;font-size:60px;}.cls-4{letter-spacing:-.06em;}.cls-5{letter-spacing:-.01em;}.cls-6{letter-spacing:0em;}.cls-7{letter-spacing:-.01em;}</style></defs><path class="cls-2" d="M7.25,18.49c3.56,2.2,7.12,4.39,10.68,6.59.94-1.39,2.21-3.02,3.91-4.66.95-.92,3.02-2.9,6.07-4.52,4.52-2.4,8.68-2.64,11.29-2.78,1.72-.09,4.69-.22,8.4.73,3,.77,5.08,1.88,6.61,2.71,4.83,2.62,7.84,5.75,9.41,7.41,1.39,1.47,2.99,3.38,4.56,5.76.84-1.13,2.11-2.78,3.76-4.71,3.03-3.53,4.87-5.67,7.62-7.55.8-.55,4.02-2.64,8.78-3.69,2.02-.45,5.82-1.25,10.45-.16.54.13,2.5.61,4.85,1.79,3.74,1.88,6.01,4.29,6.8,5.18,2.86,3.22,4.04,6.42,4.4,7.51,1.32,3.92,1.15,7.21,1.04,8.49-.36,4.08-1.85,7.1-2.8,8.71h14.52c.08-.26.2-.63.33-1.09,1.86-6.52,1.31-11.98,1.15-13.34-.16-1.38-.83-6.34-3.76-11.86-5.86-11.03-16.05-15.5-17.69-16.19-2.01-.85-14.94-6.05-28.47.28-5.83,2.73-9.6,6.58-11.62,8.99-.2-.24-.51-.58-.89-.99-4.94-5.21-10.62-7.27-13.65-8.33-3.09-1.08-10.44-3.55-19.91-1.93-3.07.53-12.37,2.51-20.24,10.4-2.7,2.7-4.48,5.36-5.59,7.25Z"/><path class="cls-1" d="M65.22,101.12h2.52c.14-.17.34-.41.59-.71,3.62-4.33,5.43-6.5,6.87-8,1.78-1.85,4.89-5.04,9.79-7.53,1.82-.92,2.75-1.18,4.19-1.76,4.26-1.74,7.58-4.2,15.08-11.29,7.34-6.94,7.4-7.66,11.81-11.65,5.17-4.68,9.84-7.99,12.99-10.07-1.14-.31-2.67-.68-4.49-.99-4.68-.79-8.32-.7-9.36-.66-2.02.08-6.05.26-10.96,1.86-4.9,1.6-8.67,3.96-11.32,6,.02-.4.04-.81.05-1.22.06-2.64-.15-5.1-.52-7.34-.66.85-1.63,2.08-2.89,3.51-.47.53-.77.85-1.62,1.79-1.95,2.14-2.92,3.2-3.18,3.51-1.73,2.07-2.54,4.1-3.34,6.12-1.41,3.53-.64,3.54-1.93,6.16-1,2.03-1.73,2.58-3.15,5.48-.73,1.5-1.16,2.61-1.36,3.13-.89,2.26-2.65,5.88-6.42,11.86-.09-.6-.24-1.47-.45-2.49-.74-3.6-1.68-6.23-2.28-7.88-2.57-7.06-3.85-10.59-3.98-10.87-2.39-5.2-5.07-8.58-8.35-12.78-3.49-4.46-4.86-5.47-9.46-10.79-4.07-4.7-7.17-8.73-9.18-11.44v7.91c-.22-.4-.47-.8-.78-1.2-2.23-2.92-5.71-3.69-6.78-3.95,0,0-6.24-1.53-13.98-6.14-3.43-2.05-7.61-6.29-10.02-16.16-.6,1.49-1.35,3.55-1.98,6.07-.49,1.97-1.97,8.46-.99,17.01.48,4.16,1.34,11.04,5.79,18.21,2.32,3.74,4.85,6.32,6.49,7.98.95.95,3.5,3.46,9.74,7.76,3.73,2.58,9.55,6.33,17.72,10.52,6.77,3.47,6.89,3.01,10.87,5.44,7.16,4.37,10.51,8.15,12.64,11.58.77,1.24,1.31,2.31,1.65,3.05Z"/><text class="cls-3" transform="translate(120.49 100.97)"><tspan class="cls-4" x="0" y="0">T</tspan><tspan class="cls-6" x="30.18" y="0">i</tspan><tspan class="cls-7" x="47.04" y="0">d</tspan><tspan class="cls-5" x="74.28" y="0">s</tspan><tspan x="94.32" y="0">l</tspan><tspan class="cls-7" x="109.26" y="0">e</tspan><tspan x="129.36" y="0">rne </tspan></text></svg>